<svg id="visual" viewBox="0 0 900 600" width="900" height="600" xmlns="http://www.w3.org/2000/svg" xmlns:xlink="http://www.w3.org/1999/xlink" version="1.1"><rect x="0" y="0" width="900" height="600" fill="#9BCDD2"></rect><path d="M0 352L37.5 370.3C75 388.7 150 425.3 225 424.8C300 424.3 375 386.7 450 399.8C525 413 600 477 675 482.7C750 488.3 825 435.7 862.5 409.3L900 383L900 0L862.5 0C825 0 750 0 675 0C600 0 525 0 450 0C375 0 300 0 225 0C150 0 75 0 37.5 0L0 0Z" fill="#9bcdd2"></path><path d="M0 323L37.5 330.8C75 338.7 150 354.3 225 361C300 367.7 375 365.3 450 382C525 398.7 600 434.3 675 436.5C750 438.7 825 407.3 862.5 391.7L900 376L900 0L862.5 0C825 0 750 0 675 0C600 0 525 0 450 0C375 0 300 0 225 0C150 0 75 0 37.5 0L0 0Z" fill="#a2d1d0"></path><path d="M0 356L37.5 370.2C75 384.3 150 412.7 225 412.8C300 413 375 385 450 364.5C525 344 600 331 675 324.7C750 318.3 825 318.7 862.5 318.8L900 319L900 0L862.5 0C825 0 750 0 675 0C600 0 525 0 450 0C375 0 300 0 225 0C150 0 75 0 37.5 0L0 0Z" fill="#abd5ce"></path><path d="M0 399L37.5 397.2C75 395.3 150 391.7 225 379.2C300 366.7 375 345.3 450 340.8C525 336.3 600 348.7 675 359.8C750 371 825 381 862.5 386L900 391L900 0L862.5 0C825 0 750 0 675 0C600 0 525 0 450 0C375 0 300 0 225 0C150 0 75 0 37.5 0L0 0Z" fill="#b4d8cd"></path><path d="M0 277L37.5 281.8C75 286.7 150 296.3 225 298C300 299.7 375 293.3 450 285.7C525 278 600 269 675 270C750 271 825 282 862.5 287.5L900 293L900 0L862.5 0C825 0 750 0 675 0C600 0 525 0 450 0C375 0 300 0 225 0C150 0 75 0 37.5 0L0 0Z" fill="#bedccc"></path><path d="M0 263L37.5 257.2C75 251.3 150 239.7 225 235C300 230.3 375 232.7 450 249.5C525 266.3 600 297.7 675 307.7C750 317.7 825 306.3 862.5 300.7L900 295L900 0L862.5 0C825 0 750 0 675 0C600 0 525 0 450 0C375 0 300 0 225 0C150 0 75 0 37.5 0L0 0Z" fill="#c8dfcc"></path><path d="M0 247L37.5 252.3C75 257.7 150 268.3 225 255.5C300 242.7 375 206.3 450 205.5C525 204.7 600 239.3 675 248.2C750 257 825 240 862.5 231.5L900 223L900 0L862.5 0C825 0 750 0 675 0C600 0 525 0 450 0C375 0 300 0 225 0C150 0 75 0 37.5 0L0 0Z" fill="#d2e1ce"></path><path d="M0 244L37.5 227.8C75 211.7 150 179.3 225 180.2C300 181 375 215 450 226.3C525 237.7 600 226.3 675 219.8C750 213.3 825 211.7 862.5 210.8L900 210L900 0L862.5 0C825 0 750 0 675 0C600 0 525 0 450 0C375 0 300 0 225 0C150 0 75 0 37.5 0L0 0Z" fill="#dbe4d0"></path><path d="M0 175L37.5 168.8C75 162.7 150 150.3 225 155.7C300 161 375 184 450 189C525 194 600 181 675 170.7C750 160.3 825 152.7 862.5 148.8L900 145L900 0L862.5 0C825 0 750 0 675 0C600 0 525 0 450 0C375 0 300 0 225 0C150 0 75 0 37.5 0L0 0Z" fill="#e4e7d4"></path><path d="M0 163L37.5 151.3C75 139.7 150 116.3 225 109.3C300 102.3 375 111.7 450 110.5C525 109.3 600 97.7 675 101.3C750 105 825 124 862.5 133.5L900 143L900 0L862.5 0C825 0 750 0 675 0C600 0 525 0 450 0C375 0 300 0 225 0C150 0 75 0 37.5 0L0 0Z" fill="#edead8"></path><path d="M0 114L37.5 107.8C75 101.7 150 89.3 225 85.3C300 81.3 375 85.7 450 81.3C525 77 600 64 675 59.5C750 55 825 59 862.5 61L900 63L900 0L862.5 0C825 0 750 0 675 0C600 0 525 0 450 0C375 0 300 0 225 0C150 0 75 0 37.5 0L0 0Z" fill="#f4edde"></path><path d="M0 43L37.5 42.8C75 42.7 150 42.3 225 45.8C300 49.3 375 56.7 450 53.8C525 51 600 38 675 38.7C750 39.3 825 53.7 862.5 60.8L900 68L900 0L862.5 0C825 0 750 0 675 0C600 0 525 0 450 0C375 0 300 0 225 0C150 0 75 0 37.5 0L0 0Z" fill="#faf0e4"></path></svg>